<svg width="45" height="45" viewBox="0 0 45 45" fill="none" xmlns="http://www.w3.org/2000/svg">
<path d="M28.8699 44.3329C31.6476 44.3329 34.0311 44.187 36.0226 43.7444C38.0395 43.2961 39.7878 42.5148 41.1515 41.1511C42.5152 39.7874 43.2966 38.0391 43.7448 36.0222C44.1875 34.0307 44.3333 31.6471 44.3333 28.8694V22.1662C44.3333 19.7177 42.3485 17.7329 39.9 17.7329H22.1667C19.7181 17.7329 17.7333 19.7177 17.7333 22.1662V39.8996C17.7333 42.3481 19.7181 44.3329 22.1667 44.3329H28.8699Z" fill="white"/>
<path d="M0 28.8694C0 31.6471 0.145945 34.0307 0.588569 36.0222C1.03678 38.0391 1.81813 39.7874 3.18187 41.1511C4.5456 42.5148 6.29384 43.2961 8.31061 43.7444C8.50374 43.7871 8.69786 43.8275 8.89277 43.8652C11.2968 44.3295 13.3 42.2949 13.3 39.8463V22.1662C13.3 19.7177 11.3151 17.7329 8.86666 17.7329H4.43333C1.98487 17.7329 0 19.7177 0 22.1662V28.8694Z" fill="white"/>
<path d="M15.4634 0C12.6857 0 10.3022 0.145945 8.31058 0.588569C6.29381 1.03678 4.54557 1.81813 3.18184 3.18187C1.8181 4.5456 1.03675 6.29384 0.58854 8.31061C0.551743 8.47621 0.517119 8.64235 0.4846 8.80898C0.00939199 11.2444 2.08126 13.3 4.5626 13.3H39.8468C42.2953 13.3 44.33 11.2968 43.8656 8.89277C43.8279 8.69786 43.7876 8.50374 43.7448 8.31061C43.2964 6.29384 42.5152 4.5456 41.1513 3.18187C39.7876 1.81813 38.0393 1.03678 36.0226 0.588569C34.0309 0.145945 31.6476 0 28.8699 0H15.4634Z" fill="white"/>
</svg>
