<svg height="64px" width="64px" version="1.1" id="_x32_" xmlns="http://www.w3.org/2000/svg" xmlns:xlink="http://www.w3.org/1999/xlink" viewBox="0 0 512 512" xml:space="preserve" fill="#000000">

<g id="SVGRepo_bgCarrier" stroke-width="0"/>

<g id="SVGRepo_tracerCarrier" stroke-linecap="round" stroke-linejoin="round"/>

<g id="SVGRepo_iconCarrier"> <style type="text/css"> .st0{fill:#000000;} </style> <g> <path class="st0" d="M428.644,247.425l-32.022-44.73c-7.778-10.56-17.884-19.181-29.542-25.18l-65.406-34.34 c-15.112-6.16-26.022-11.223-41.825-11.96l-18.263-0.522c-11.317-0.189-22.815,3.369-30.716,11.488l-62.245,55.867l-53.918,14.79 c-10.21,2.801-16.437,13.105-14.175,23.448l0.19,0.804c2.224,10.172,11.922,16.901,22.237,15.424l43.433-6.189 c10.835-1.551,21.292-5.072,30.848-10.38l26.25-17.715l1.344,87.122c-0.266,7.012-0.417,11.8-3.36,16.919l-89.015,154.62 c-6.359,11.024-2.602,25.104,8.384,31.51l0.766,0.445c10.399,6.066,23.704,3.133,30.592-6.728l101.686-143.803l38.948,85.238 c3.009,3.965,6.652,7.39,10.788,10.164l77.726,52.044c9.784,6.567,22.994,4.484,30.299-4.779l0.87-1.108 c3.738-4.74,5.413-10.786,4.675-16.777c-0.748-5.99-3.861-11.441-8.649-15.112l-67.034-51.505l-38.816-109.691l3.464-98.336 l46.537,13.986l48.94,48.051c6.151,6.046,15.803,6.718,22.729,1.571l0.473-0.341C432.524,266.02,434.228,255.204,428.644,247.425z"/> <path class="st0" d="M305.536,68.089c-4.674,34.208,27.186,37.936,36.28,28.388c-9.481-1.893-12.576-22.067-7.835-35.344 c4.75-13.276,8.857-39.204-3.548-50.956c-15.878-15.064-40.708-13.531-51.458,5.432c3.16,3.795,10.201,7.798,13.91,12.017 C303,23.832,308.564,45.89,305.536,68.089z"/> <path class="st0" d="M240.234,111.902c26.391,4.031,51.07-14.09,55.12-40.49c4.031-26.401-14.1-51.08-40.5-55.12 c-26.4-4.04-51.079,14.09-55.11,40.491C195.693,83.182,213.834,107.861,240.234,111.902z"/> </g> </g>

</svg>