<svg width="65" height="39" viewBox="0 0 65 39" fill="none" xmlns="http://www.w3.org/2000/svg">
<path d="M47.4636 0C42.5236 0 36.6302 1.87778 36.6302 10.8333V28.1667C36.6302 37.1222 42.5236 39 47.4636 39C52.4036 39 58.2969 37.1222 58.2969 28.1667V10.8333C58.2969 1.87778 52.4036 0 47.4636 0Z" fill="white"/>
<path d="M17.5365 0C12.5965 0 6.70312 1.87778 6.70312 10.8333V28.1667C6.70312 37.1222 12.5965 39 17.5365 39C22.4765 39 28.3698 37.1222 28.3698 28.1667V10.8333C28.3698 1.87778 22.4765 0 17.5365 0Z" fill="white"/>
<path d="M36.632 17.3335H28.3698V21.6668H36.632V17.3335Z" fill="white"/>
<path d="M62.8333 28.8891C61.6488 28.8891 60.6666 27.9069 60.6666 26.7224V12.278C60.6666 11.0936 61.6488 10.1113 62.8333 10.1113C64.0177 10.1113 65 11.0936 65 12.278V26.7224C65 27.9069 64.0177 28.8891 62.8333 28.8891Z" fill="white"/>
<path d="M2.16667 28.8891C0.982222 28.8891 0 27.9069 0 26.7224V12.278C0 11.0936 0.982222 10.1113 2.16667 10.1113C3.35111 10.1113 4.33333 11.0936 4.33333 12.278V26.7224C4.33333 27.9069 3.35111 28.8891 2.16667 28.8891Z" fill="white"/>
</svg>
